<svg width="190" height="31" viewBox="0 0 190 31" fill="none" xmlns="http://www.w3.org/2000/svg">
<path d="M43.2718 0.493046H38.7827V13.5451H22.5909V0.493046H18.1537V30.1522H22.5909V16.6071H38.7827V30.1522H43.2718V0.493046Z" fill="white"/>
<path d="M4.99774 0.493046H0.560547V30.1522H4.99774V0.493046Z" fill="white"/>
<path d="M75.0585 15.8805V27.3757C73.813 28.232 71.6852 28.9066 69.3239 28.9066C62.3697 28.9066 57.6211 22.7568 57.6211 15.0242C57.6211 7.7067 61.7989 1.7126 68.7271 1.7126C73.5276 1.7126 76.2522 3.94417 78.2761 6.46117H78.5097V1.29742C77.0825 0.934146 73.0864 0 68.9087 0C58.8407 0 52.7169 7.34342 52.7169 15.4134C52.7169 24.2359 59.3597 30.6452 69.0385 30.6452C73.8389 30.6452 77.5496 28.8028 79.5736 28.232V15.8805H75.0585Z" fill="white"/>
<path d="M80.6635 2.59488C80.6635 1.60884 81.442 0.804435 82.454 0.804435C83.466 0.804435 84.2444 1.58289 84.2444 2.56893C84.2444 3.58092 83.466 4.33343 82.454 4.33343C81.4679 4.35938 80.6635 3.58092 80.6635 2.59488ZM83.9071 2.56893C83.9071 1.68668 83.3103 1.08987 82.454 1.08987C81.5977 1.08987 81.0009 1.71263 81.0009 2.59488C81.0009 3.47713 81.6496 4.07394 82.454 4.07394C83.2843 4.048 83.9071 3.45118 83.9071 2.56893ZM81.8312 1.68668H82.454C82.8691 1.68668 83.1286 1.84237 83.1286 2.20565C83.1286 2.46514 82.9729 2.62083 82.7654 2.67273L83.2324 3.42523H82.8432L82.428 2.75057H82.2464V3.42523H81.8572V1.68668H81.8312ZM82.454 2.49109C82.6616 2.49109 82.7654 2.41324 82.7654 2.2316C82.7654 2.04996 82.6616 1.97212 82.454 1.97212H82.2204V2.49109H82.454Z" fill="white"/>
<path d="M95.5579 0.518969H96.9851V5.52703H105.47V0.518969H106.897V11.573H105.47V6.66876H96.9851V11.573H95.5579V0.518969Z" fill="white"/>
<path d="M109.959 6.12383V5.99409C109.959 2.85432 112.814 0.389218 117.225 0.389218C121.636 0.389218 124.491 2.85432 124.491 5.96814V6.09788C124.491 9.2117 121.636 11.7287 117.277 11.7287C112.84 11.7287 109.959 9.2117 109.959 6.12383ZM123.011 6.07194V5.94219C123.011 3.47709 120.884 1.47905 117.251 1.47905C113.566 1.47905 111.49 3.37329 111.49 5.99409V6.12383C111.49 8.79653 113.878 10.6129 117.303 10.6129C120.806 10.587 123.011 8.74463 123.011 6.07194Z" fill="white"/>
<path d="M125.736 1.63475V0.518969H136.271V1.63475H131.73V11.573H130.303V1.63475H125.736Z" fill="white"/>
<path d="M138.97 0.518969H148.285V1.63475H140.423V5.37134H147.066V6.48712H140.423V10.4832H148.675V11.599H138.996V0.518969H138.97Z" fill="white"/>
<path d="M151.503 0.518969H152.93V10.4572H160.066V11.573H151.503V0.518969Z" fill="white"/>
<path d="M161.83 8.19973H163.232C163.465 9.54905 164.503 10.6129 167.461 10.6129C169.823 10.6129 171.146 9.80853 171.146 8.45921C171.146 7.16179 170.16 6.74661 167.15 6.38333C164.114 6.02005 162.401 5.2935 162.401 3.32141C162.401 1.60881 164.192 0.363283 167.098 0.363283C169.978 0.363283 171.821 1.37527 172.106 3.39926H170.783C170.445 1.97209 169.226 1.45312 167.098 1.45312C164.763 1.45312 163.751 2.15373 163.751 3.26951C163.751 4.25556 164.477 4.82642 167.565 5.1897C170.809 5.55298 172.547 6.20169 172.547 8.38137C172.547 10.3016 170.653 11.6768 167.461 11.6768C163.751 11.7287 162.116 10.1718 161.83 8.19973Z" fill="white"/>
<path d="M95.5579 19.0722H100.825C103.291 19.0722 105.366 19.9804 105.366 22.3157V22.3676C105.366 24.2878 103.732 25.2479 102.201 25.5333L106.249 30.1262H104.51L100.54 25.6371H96.9851V30.1262H95.5579V19.0722ZM100.903 24.5732C102.746 24.5732 103.913 23.8207 103.913 22.4195V22.3676C103.913 20.7848 102.668 20.2139 100.903 20.2139H96.9851V24.5992H100.903V24.5732Z" fill="white"/>
<path d="M109.388 19.0722H118.704V20.1879H110.842V23.9245H117.484V25.0403H110.842V29.0364H119.093V30.1522H109.414V19.0722H109.388Z" fill="white"/>
<path d="M121.506 26.7529H122.908C123.141 28.1022 124.179 29.1661 127.137 29.1661C129.499 29.1661 130.822 28.3617 130.822 27.0124C130.822 25.715 129.836 25.2998 126.826 24.9365C123.79 24.5732 122.077 23.8467 122.077 21.8746C122.077 20.162 123.868 18.9165 126.774 18.9165C129.654 18.9165 131.497 19.9285 131.782 21.9524H130.459C130.121 20.5253 128.902 20.0063 126.774 20.0063C124.439 20.0063 123.427 20.7069 123.427 21.8227C123.427 22.8087 124.153 23.3796 127.241 23.7429C130.485 24.1062 132.223 24.7549 132.223 26.9345C132.223 28.8547 130.329 30.23 127.137 30.23C123.427 30.2819 121.792 28.725 121.506 26.7529Z" fill="white"/>
<path d="M135.026 24.677V24.5473C135.026 21.4075 137.88 18.9424 142.291 18.9424C146.702 18.9424 149.557 21.4075 149.557 24.5213V24.6511C149.557 27.7649 146.702 30.2819 142.343 30.2819C137.88 30.2819 135.026 27.7649 135.026 24.677ZM148.052 24.6251V24.4954C148.052 22.0303 145.924 20.0322 142.291 20.0322C138.606 20.0322 136.531 21.9265 136.531 24.5473V24.6511C136.531 27.3238 138.918 29.1402 142.343 29.1402C145.872 29.1402 148.052 27.2978 148.052 24.6251Z" fill="white"/>
<path d="M153.138 19.0722H158.405C160.87 19.0722 162.946 19.9804 162.946 22.3157V22.3676C162.946 24.2878 161.311 25.2479 159.78 25.5333L163.828 30.1262H162.09L158.12 25.6371H154.565V30.1262H153.138V19.0722ZM158.509 24.5732C160.351 24.5732 161.519 23.8207 161.519 22.4195V22.3676C161.519 20.7848 160.273 20.2139 158.509 20.2139H154.591V24.5992H158.509V24.5732Z" fill="white"/>
<path d="M170.134 20.1879H165.593V19.0722H176.128V20.1879H171.561V30.1262H170.134V20.1879Z" fill="white"/>
<path d="M178.126 26.7529H179.527C179.761 28.1022 180.799 29.1661 183.757 29.1661C186.118 29.1661 187.442 28.3617 187.442 27.0124C187.442 25.715 186.455 25.2998 183.445 24.9365C180.409 24.5732 178.697 23.8467 178.697 21.8746C178.697 20.162 180.487 18.9165 183.394 18.9165C186.274 18.9165 188.116 19.9285 188.402 21.9524H187.078C186.741 20.5253 185.521 20.0063 183.394 20.0063C181.058 20.0063 180.046 20.7069 180.046 21.8227C180.046 22.8087 180.773 23.3796 183.861 23.7429C187.104 24.1062 188.843 24.7549 188.843 26.9345C188.843 28.8547 186.949 30.23 183.757 30.23C180.046 30.2819 178.411 28.725 178.126 26.7529Z" fill="white"/>
<path d="M186.326 10.068C185.521 10.9762 184.328 11.7028 182.719 11.7028C180.435 11.7028 178.956 10.6129 178.956 8.74464C178.956 6.98015 180.332 6.02005 181.733 5.50108C181.006 4.85237 180.513 4.07392 180.513 3.03598C180.513 1.32338 181.915 0.363283 183.471 0.363283C185.158 0.363283 186.274 1.45312 186.274 2.93218C186.274 4.02202 185.418 5.11186 183.731 5.76057L186.43 8.48516L188.168 5.86436H189.362L187.156 9.21172L189.491 11.573H187.857L186.326 10.068ZM182.745 10.6129C184.042 10.6129 185.028 10.094 185.677 9.39336L182.485 6.12385C181.162 6.61687 180.202 7.34343 180.202 8.64085C180.202 9.86043 181.11 10.6129 182.745 10.6129ZM182.978 5.11186C184.535 4.4372 185.106 3.76254 185.106 2.88029C185.106 2.02399 184.509 1.37527 183.42 1.37527C182.433 1.37527 181.655 1.92019 181.655 3.03598C181.655 3.86633 182.226 4.51504 182.978 5.11186Z" fill="white"/>
</svg>
